<svg width="580" height="400" xmlns="http://www.w3.org/2000/svg">
 <!-- Created with Method Draw - http://github.com/duopixel/Method-Draw/ -->
 <g>
  <title>background</title>
  <rect fill="#fff" id="canvas_background" height="402" width="582" y="-1" x="-1"/>
  <g display="none" overflow="visible" y="0" x="0" height="100%" width="100%" id="canvasGrid">
   <rect fill="url(#gridpattern)" stroke-width="0" y="0" x="0" height="100%" width="100%"/>
  </g>
 </g>
 <g>
  <title>Layer 1</title>
  <path id="svg_14" d="m2.89249,131.785332l49.5,0l0,0c27.338099,0 49.5,27.310628 49.5,60.999997c0,33.689373 -22.161901,60.999997 -49.5,60.999997l-49.5,0l0,-121.999995z" fill-opacity="null" stroke-opacity="null" stroke-width="0" stroke="#000" fill="#000000"/>
  <ellipse stroke="#000" ry="37.500002" rx="21.5" id="svg_15" cy="193.937502" cx="46" stroke-opacity="null" stroke-width="0" fill="#ffffff"/>
  <ellipse ry="1" id="svg_16" cy="334.4375" cx="158.5" stroke-opacity="null" stroke-width="0" stroke="#000" fill="#ffffff"/>
  <path id="svg_18" d="m152.261159,230.141079c0,0 6.059341,1.747276 7.498463,7.787785c0,0 1.287595,2.346334 0.908899,3.594377c-0.378696,1.248015 -0.984663,1.647397 -1.136129,1.797175c0,0 0.757433,-1.148218 -1.817798,-2.995319c0,0 -1.325498,-0.299529 -1.590589,-0.599058c-0.265091,-0.299529 -4.165799,-1.297969 -4.998976,1.198117c-0.833156,2.496113 -1.022504,6.689521 -0.908899,6.889198c0.113605,0.199677 3.976451,3.993758 4.317286,5.092023c0.340835,1.098264 2.158653,3.344719 2.953948,3.294821c0.795274,-0.049899 2.688836,-0.049899 3.181157,-0.898587c0.492301,-0.848689 1.931423,-0.948514 2.272258,0c0.340835,0.948486 0.22723,0.898587 0.22723,0.898587c0,0 1.211872,-0.349428 1.590589,0.898587c0.378696,1.248043 -0.568085,1.797175 -0.68169,1.797175c-0.113605,0 0.719551,-1.897027 -0.45446,-1.497646c0,0 -0.681669,0.037451 -0.681669,-0.299529c0,-0.336981 0.397647,1.759751 0,1.797175c0,0 -1.334963,-1.946926 -1.590589,-0.898587c0,0 -0.852086,0.224654 -1.136129,0.299529c-0.284022,0.074875 -0.22723,0.299529 -0.22723,0.299529c0,0 -0.738482,0.374405 -0.227209,1.497646c0,0 0,0.411856 -0.22723,0.599086c-0.22723,0.187202 0.142021,1.08579 1.136129,0.299529c0,0 0.255626,-0.299529 0.22723,0c-0.028417,0.299529 -1.022524,1.909502 -2.272258,-0.299529c0,0 -0.45446,-1.684875 0.22723,-2.096731c0.681669,-0.411856 -0.22723,-1.235568 -1.136129,-0.599058c0,0 -0.056813,1.198117 0.227209,1.497646c0.284043,0.299529 -0.482856,0.037451 -0.681669,-0.299529c-0.198813,-0.336953 -0.45446,0.711385 -0.45446,0.898587c0,0.187202 -0.255626,0.823712 -0.454439,0.599086c-0.198834,-0.224654 -2.073445,-0.486759 -2.045049,-0.299556c0.028417,0.18723 -0.880482,0.97349 -1.136129,0.599086c-0.255626,-0.374432 -1.675777,-2.283934 -1.817798,-2.096731c-0.142021,0.187202 0.965712,2.283934 1.590589,2.69579c0.624856,0.411829 3.23797,0.673934 4.090056,-0.299529c0,0 1.306546,-0.336981 1.363359,0c0,0 1.476964,0.786261 1.363359,1.198117c-0.113625,0.411856 -0.113625,0.187202 -0.22723,0c-0.113605,-0.18723 -1.05092,-0.861163 -1.136129,-0.599058c-0.085209,0.262078 0,0.299529 0,0.299529c0,0 1.192942,0.44928 1.136129,0.599058c0,0 1.391755,0.748809 1.136129,2.396233c0,0 -0.426043,0.411856 -0.45446,0c-0.028396,-0.411856 0.170417,-1.535097 -0.681669,-1.497646c0,0 -0.142021,0.599058 -0.681669,0.299529c-0.539668,-0.299529 0.312418,-0.936039 -2.499488,-0.599058c0,0 0.113605,0.711385 0.454439,0.898587c0.340835,0.187202 0.90892,0.187202 0.90892,0.898587c0,0 0.369231,0.599058 0,1.198117c0,0 -0.22723,0.187202 -0.22723,0c0,-0.187202 0.22723,-1.08579 -0.908899,-1.497646c-1.13615,-0.411856 -0.90892,-0.299529 -0.90892,-0.299529c0,0 0.198834,1.797175 -0.22723,1.797175c-0.426043,0 0.284043,1.123241 1.13615,0.599058c0,0 0.085188,-0.44928 0.227209,-0.299529c0.142021,0.149778 -0.710065,2.321358 -2.272258,-0.299529c0,0 -0.511252,-1.385319 0,-1.797175c0,0 0.340835,-1.385319 -1.363359,-0.898587c0,0 -0.710065,0.149751 -0.681669,0c0.028396,-0.149778 -0.113605,0.711385 0,0.898587c0.113605,0.187202 -1.334963,-0.411856 -1.363359,-0.599058l-0.454439,0c0,0 0.265091,1.747276 0.454439,1.797175c0.189348,0.049899 -0.871017,-0.848689 -1.136129,-1.497646c0,0 0,1.248015 0.22723,1.497646c0.22723,0.24963 -1.022524,-1.347895 -0.908899,-1.497646c0,0 0.037861,1.597498 0.454439,2.396233c0.416578,0.798735 -0.908899,-0.748809 -1.136129,-1.198117c0,0 -0.227209,0.199677 0,0.599058c0.22723,0.399381 -0.757412,-0.399381 -0.908899,-1.497646c0,0 -0.643808,-0.69891 -0.908899,-0.898587c0,0 0.037861,1.697323 0.22723,1.797175c0,0 -0.530203,-0.549159 -0.68169,-1.198117c0,0 -0.302953,0.599058 -0.22723,0.898587c0,0 -0.871017,-1.297969 -1.136129,-2.396233c-0.265091,-1.098264 -0.227209,0.299529 -0.227209,0.299529c0,0 -0.530203,-0.099879 -0.90892,-2.096704c0,0 -2.196515,3.04519 -2.953927,3.294821c-0.757412,0.249603 0.908899,-1.198117 0.908899,-1.198117c0,0 -1.249734,0.499206 -1.363359,0.898587c0,0 0.113625,-0.549159 0.68169,-1.198117c0.568064,-0.648984 -0.68169,-0.299529 -0.68169,-0.299529c0,0 -0.265091,-0.099879 -0.227209,-3.294848c0,0 -1.704214,2.39626 -2.726718,2.39626c-1.022524,0 0.946781,-0.998467 1.136129,-1.797202c0.189348,-0.798735 -0.416578,-0.549132 -0.68169,-0.299529c-0.265091,0.24963 -2.234376,1.747276 -2.272258,2.096731c-0.037861,0.349428 -0.227209,-0.599058 -0.227209,-0.599058c0,0 -0.45446,0.299529 -0.90892,0.299529c-0.454439,0 1.325477,-1.098264 1.590589,-1.797202c0.265112,-0.69891 -2.461606,1.248043 -3.408387,2.096731c0,0 -0.795294,0.349428 -0.908899,0c-0.113625,-0.349455 1.363359,-1.697323 1.363359,-1.797202c0,-0.099852 0.530182,-0.948486 -0.45446,-0.299529c-0.984642,0.648984 -2.272258,0.149778 -3.181157,0.599058c-0.90892,0.449307 -1.893541,1.847101 -3.181178,1.797202c-1.287616,-0.049926 -1.287306,2.096704 -3.635596,2.096704c-1.363359,0 -0.795294,0.69891 -1.363359,0.599058c-0.568064,-0.099852 0.681669,-0.898587 0.681669,-0.898587c0,0 -1.363359,0.599058 -1.590568,0.599058c-0.22723,0 -1.249754,0.049899 1.136108,-1.198117c0,0 -1.742055,0 -1.136108,-0.299529c0.605926,-0.299529 2.120771,-0.898587 2.045028,-1.198117c-0.075764,-0.299529 -1.62845,-0.24963 -1.136129,-0.599058c0.492301,-0.349455 3.181157,-1.647424 2.499488,-1.797202c-0.68169,-0.149751 -1.666332,-0.199677 -1.136129,-0.599058c0.530203,-0.399381 7.043983,-1.347868 7.952903,-2.396233c0.908899,-1.048366 3.2569,-4.093556 3.862826,-4.193408c0.605946,-0.099879 0,-0.848689 -0.454439,-0.599086c-0.45446,0.24963 -0.871038,-0.149751 -0.68169,-1.797175c0.189369,-1.647397 -1.948949,3.612572 -3.181157,1.797175c-0.643808,-0.948486 -0.151487,-1.647397 -0.908899,-1.497646c-0.757412,0.149778 -0.719551,-1.098264 -0.908899,-0.599058c-0.189348,0.499206 -1.779937,3.594377 -2.499488,3.294848c-0.719551,-0.299529 -0.189348,-0.499206 -0.68169,-0.599058c-0.492321,-0.099879 -0.833156,-0.299529 -0.908899,-0.898615c-0.075743,-0.599058 -0.530182,0.399409 -0.681669,-0.599058c-0.151487,-0.99844 -0.265091,-2.246455 -0.908899,-1.198117c-0.643828,1.048366 -0.871058,0.349455 -0.90892,0c-0.037861,-0.349428 -1.40122,0.199677 -1.363338,-0.898587c0.037841,-1.098264 -1.325498,0.349455 -1.13615,-0.898587c0.189369,-1.248015 -1.151732,-0.169144 -0.908899,-1.198117c0.530203,-2.246482 -1.817798,-0.199677 -1.590568,-1.198117c0.227209,-0.99844 -1.098268,-0.199677 -0.90892,-1.198117c0.189369,-0.99844 -1.260914,-0.651654 -1.136129,-1.497646c0.265091,-1.797202 -1.363338,-0.549159 -1.136129,-2.096731c0.22723,-1.547545 -1.034056,-0.010377 -0.908899,-1.198117c0.189369,-1.797175 -1.623077,-1.144541 -1.136129,-2.396233c0.757433,-1.946953 -0.778823,-1.110004 -0.45446,-2.096704c0.492321,-1.497646 -3.163177,0.166148 -2.272258,-2.39626c0.416599,-1.198117 -2.47413,-1.995817 -1.136129,-2.995292c2.272258,-1.697323 -3.484109,-0.848689 -0.681669,-3.59435c2.613092,-1.597498 2.773218,-1.747957 -0.45446,-1.497646c-1.287616,0.099852 -3.219039,-2.246482 -1.363338,-2.39626c1.85568,-0.149751 5.642763,-1.347868 1.363338,-1.797175c-4.279404,-0.44928 -4.430891,-2.496085 -2.726697,-2.396233c1.704193,0.099852 8.369481,0.099852 6.589544,-0.599058c-1.779937,-0.69891 -9.925783,-2.406965 -6.816774,-4.193408c1.476964,-0.848689 11.884259,3.663751 8.861802,0.599058c-0.492301,-0.499206 -5.301928,-2.296408 -7.044004,-4.792494c-1.742055,-2.496085 -1.40122,-2.845541 -0.454439,-2.396233c0.946781,0.44928 11.929292,7.038949 10.225161,4.792466c-0.302973,-0.399381 -6.589544,-4.343186 -7.498463,-7.787758c-0.908899,-3.444599 -0.037861,-2.546011 0.68169,-1.497673c0.71953,1.048366 11.053625,11.059536 9.316262,7.787785c-0.530203,-0.99844 -5.150442,-4.992143 -6.135105,-8.985902c-0.984663,-3.993731 -0.22723,-2.895439 0.45446,-1.797175c0.681669,1.098264 11.21187,16.061376 9.543471,10.783077c-0.378696,-1.198117 -3.71136,-4.942245 -4.090056,-8.386843c-0.378696,-3.444599 0.605926,-2.146603 1.136129,-0.898587c0.530203,1.248043 7.990785,16.773687 8.180133,14.077925c0,0 0.037882,0.049899 0.22723,0c0.189348,-0.049926 -0.151487,-1.447747 0.22723,-1.198117c0,0 0.151487,-1.098264 0.454439,-0.898615c0.302973,0.199677 0.605946,0.049926 0.68169,-1.198117c0.075723,-1.248015 2.310119,0.199677 2.953927,6.589669c0,0 0.45446,0.648167 0.45446,2.096704c0,0.748836 2.726697,4.393112 4.317286,4.193435c1.590589,-0.199677 3.862847,4.193408 4.544516,4.492937c0.681669,0.299529 2.196515,2.096704 4.544516,0.299529c2.348001,-1.797175 4.658141,-2.396233 2.726718,-2.695762c-1.931423,-0.299529 -1.552707,-1.297969 -0.681669,-1.497646c0.871017,-0.199677 4.65812,-0.299529 3.408387,-1.198117c-1.249754,-0.898615 -2.329319,-5.699552 -0.68169,-4.492964c0.68169,0.499206 3.102582,4.935217 2.726718,1.797175c-0.113625,-0.948486 -1.590589,-2.096704 -1.136129,-5.391525c0.454439,-3.294848 1.084524,-0.67358 1.136129,-0.299529c0.075743,0.549132 1.912968,7.366995 2.272258,3.893879c0.113605,-1.098264 -0.833156,-2.546011 -0.45446,-6.589669c0.378696,-4.04363 0.908899,0 0.908899,0c0,0 1.080536,4.140976 0.90892,6.290139c-0.075764,0.948514 0.984642,0.599058 0.908899,-1.198117c-0.075764,-1.797175 -0.643808,-5.74098 -0.22723,-5.691081c0.416599,0.049926 1.664761,2.673564 1.363359,4.792494c-0.113625,0.798735 1.62845,1.597498 -0.22723,3.294821c-1.855659,1.697323 -3.862847,5.092023 -3.862847,5.092023c0,0 0.448963,2.193914 -1.817798,3.294821c-1.439102,0.69891 -0.22723,2.096704 -0.22723,2.096704z" stroke-opacity="null" stroke-width="0" stroke="#000" fill="#74556D"/>
  <path id="svg_19" d="m164.091978,155.22593l53.581023,0l0,0c7.019266,0 12.709493,4.477155 12.709493,10.000003c0,5.522846 -5.690229,9.999999 -12.709493,9.999999l-53.581023,0l0,0c-7.019258,0 -12.709493,-4.477153 -12.709493,-9.999999c0,-5.52285 5.690234,-10.000003 12.709493,-10.000003z" stroke-opacity="null" stroke-width="0" stroke="#000" fill="#000000"/>
  <path id="svg_20" d="m164.091978,188.22593l53.581023,0l0,0c7.019266,0 12.709493,4.477155 12.709493,10.000002c0,5.522846 -5.690229,9.999999 -12.709493,9.999999l-53.581023,0l0,0c-7.019259,0 -12.709493,-4.477153 -12.709493,-9.999999c0,-5.522849 5.690234,-10.000002 12.709493,-10.000002z" stroke-opacity="null" stroke-width="0" stroke="#000" fill="#000000"/>
  <rect id="svg_21" height="113" width="14" y="174.4375" x="167.5" stroke-opacity="null" stroke-width="0" stroke="#000" fill="#000000"/>
  <ellipse ry="0.5" id="svg_22" cy="302.9375" cx="267.5" stroke-opacity="null" stroke-width="0" stroke="#000" fill="#000000"/>
  <path stroke="#000" transform="rotate(-90 277.9624633789063,187.74938964843753) " id="svg_24" d="m214.96245,141.249398l68.72728,0l57.272725,46.500007l-57.272725,46.500004l-68.72728,0l0,-93.000011z" fill-opacity="null" stroke-opacity="null" stroke-width="0" fill="#000000"/>
  <path stroke="#000" id="svg_25" d="m245.767526,195.712179l31.000001,-44.999999l31.000001,44.999999l-62.000002,0z" stroke-opacity="null" stroke-width="0" fill="#ffffff"/>
  <rect stroke="#000" id="svg_26" height="20.999998" width="61.999999" y="228.437501" x="246.5" stroke-opacity="null" stroke-width="0" fill="#ffffff"/>
  <rect id="svg_27" height="5" width="12" y="264.4375" x="281.5" stroke-opacity="null" stroke-width="0" stroke="#000" fill="#ffffff"/>
  <path stroke="#000" transform="rotate(89.62691497802734 376.8924865722657,205.78533935546872) " id="svg_28" d="m327.798062,158.788282l49.094428,0l0,0c27.114108,0 49.094428,21.041295 49.094428,46.997049c0,25.955757 -21.98032,46.997049 -49.094428,46.997049l-49.094428,0l0,-93.994098z" fill-opacity="null" stroke-opacity="null" stroke-width="0" fill="#000000"/>
  <path stroke="#000" transform="rotate(89.62691497802734 379.3924560546875,186.28533935546872) " id="svg_30" d="m350.683647,156.92143l28.708819,0l0,0c15.855445,0 28.708819,13.146681 28.708819,29.363935c0,16.217256 -12.853374,29.363935 -28.708819,29.363935l-28.708819,0l0,-58.72787z" stroke-opacity="null" stroke-width="0" fill="#ffffff"/>
  <rect id="svg_31" height="113" width="14" y="138.4375" x="439.5" stroke-opacity="null" stroke-width="0" stroke="#000" fill="#000000"/>
  <path id="svg_32" d="m454.145003,148.2805l61.999982,-32.421993l61.999982,32.421993l-30.999993,0l0,32.578002l-61.999977,0l0,-32.578002l-30.999993,0z" fill-opacity="null" stroke-opacity="null" stroke-width="0" stroke="#000" fill="#000000"/>
  <rect stroke="#000" id="svg_33" height="82" width="60.999999" y="168.4375" x="485.5" fill-opacity="null" stroke-opacity="null" stroke-width="0" fill="#000000"/>
  <rect id="svg_34" height="0" width="5" y="253.4375" x="524.5" fill-opacity="null" stroke-opacity="null" stroke-width="0" stroke="#000" fill="#000000"/>
 </g>
</svg>