<svg width="580" height="400" xmlns="http://www.w3.org/2000/svg">
 <!-- Created with Method Draw - http://github.com/duopixel/Method-Draw/ -->
 <g>
  <title>background</title>
  <rect fill="#fff" id="canvas_background" height="402" width="582" y="-1" x="-1"/>
  <g display="none" overflow="visible" y="0" x="0" height="100%" width="100%" id="canvasGrid">
   <rect fill="url(#gridpattern)" stroke-width="0" y="0" x="0" height="100%" width="100%"/>
  </g>
 </g>
 <g>
  <title>Layer 1</title>
  <path stroke="#000" transform="rotate(90 288.7624816894532,191.98529052734378) " id="svg_1" d="m163.262505,77.485302l125.499995,0l0,0c69.311743,0 125.499995,51.263393 125.499995,114.499997c0,63.236611 -56.188251,114.499997 -125.499995,114.499997l-125.499995,0l0,-228.999993z" stroke-width="1.5" fill="#645A73"/>
  <path id="svg_2" d="m229.658625,244.458446l18.999999,-31.999997l18.999999,31.999997l-37.999997,0z" fill-opacity="null" stroke-opacity="null" stroke-width="1.5" stroke="#000" fill="#fff"/>
  <path id="svg_3" d="m311.658625,244.45845l19,-32l19,32l-38,0z" fill-opacity="null" stroke-opacity="null" stroke-width="1.5" stroke="#000" fill="#fff"/>
  <path transform="rotate(-180 289.65863037109375,274.45843505859375) " id="svg_4" d="m270.658625,290.45845l19,-32l19,32l-38,0z" fill-opacity="null" stroke-opacity="null" stroke-width="1.5" stroke="#000" fill="#fff"/>
  <ellipse ry="24.5" rx="24.5" id="svg_5" cy="145.9375" cx="289" stroke-opacity="null" stroke-width="1.5" stroke="#000" fill="#ffffff"/>
  <path id="svg_8" d="m217.755597,120.558011c0.273651,0.208184 0.85277,-0.186111 1.134122,-0.23483c-0.316667,-0.473212 0.876102,-2.778613 0.464436,-3.615834c-0.126667,-1.892847 -3.332877,-6.165558 -3.736665,-6.661367c0.154027,-0.332501 1.880189,-0.023093 1.828661,0.024607c-0.720328,0.66701 2.430758,4.495018 2.794671,6.709562c0.670548,-0.042662 1.551337,-0.331452 1.94223,0.145604c0.365028,-0.458506 3.181562,-3.961788 3.335537,-6.988975c0.022065,-0.433812 1.550729,-0.159261 1.26317,0.105155c-0.46094,1.884752 -3.711433,7.176513 -3.965375,7.369176c0.295539,1.650155 0.175889,1.76326 2.063602,3.046378c0.849553,-2.293112 2.659695,-4.239629 4.317609,-6.176973c1.872057,-2.17526 3.128438,-4.25914 5.190621,-6.523597c2.714694,-2.876517 6.18166,-5.501226 9.35699,-7.068038c2.208939,-1.08996 5.909986,-2.024357 6.477351,-2.08551c1.05108,-0.117298 2.001586,-0.096477 3.247453,0.116308c1.838313,0.313951 3.63328,0.489287 5.563325,1.530702c1.814803,1.336583 1.187449,3.011724 0.849072,4.580807c-2.795102,3.543207 -5.657894,7.78668 -6.559507,12.127969c-0.303139,1.607493 -0.848185,4.377516 -2.134561,6.117508c-2.068061,2.676457 -4.599062,2.577476 -6.977101,2.940291c1.44899,0.47691 3.020568,2.034112 4.430494,3.598915c2.199414,2.461255 3.271115,4.985294 2.703142,7.733156c-0.120916,0.576358 -2.218009,4.947962 -3.243729,6.319664c-3.893175,5.223182 -9.193413,8.765456 -13.465295,8.190555c-1.538366,-0.207019 -5.781698,-3.919912 -6.544611,-5.015493c-1.893894,-2.719702 -3.449512,-6.000181 -3.513453,-8.864263c-0.235423,-0.270386 -0.523336,-0.290363 -0.396391,-0.652101c-0.235904,0.828339 -0.98501,3.525909 -2.094027,5.231277c-1.603321,2.465478 -3.070982,-1.220042 -3.665048,-4.208848c-0.203655,-1.024555 -0.054188,-1.201929 -0.291713,-1.814571c-1.123153,0.489869 -0.531772,1.910262 -0.972546,3.057677c-0.373692,0.999191 -2.047237,4.051101 -2.509392,4.746854c-1.477313,2.224008 -4.794509,5.589462 -7.200237,6.397009c-2.232803,0.749509 -4.125203,0.644354 -5.919689,-0.413631c-2.314579,-1.364597 -5.576498,-4.533836 -7.583252,-7.110758c-2.540426,-3.188545 -4.760816,-7.979197 -2.647535,-11.353678c1.348848,-2.105487 3.887829,-5.243217 6.368899,-6.014246c-1.751394,-0.246565 -5.626329,-1.573422 -7.067389,-5.258854c-0.462536,-1.168469 -0.634118,-2.985224 -0.751766,-4.285086c-0.191419,-2.146023 -1.043226,-4.611617 -1.75033,-6.724705c-0.568429,-1.931869 -1.573098,-4.405093 -2.624532,-6.518676c-1.101898,-2.21798 -2.005285,-5.885504 -0.087653,-7.691484c0.669864,-0.630959 2.74403,-1.366869 3.177508,-1.419344c1.515262,-0.185994 3.579675,0.669369 5.112163,1.182535c1.00401,0.338994 5.409349,2.148236 6.627654,3.144427c8.031652,6.567365 13.742746,14.747903 17.45309,22.284726z" fill-opacity="null" stroke-opacity="null" stroke-width="1.5" stroke="#000" fill="#fff"/>
  <path id="svg_9" d="m351.7556,122.55801c0.27365,0.20818 0.85277,-0.18611 1.13412,-0.23483c-0.31667,-0.47321 0.8761,-2.77861 0.46444,-3.61583c-0.12667,-1.89285 -3.33288,-6.16556 -3.73667,-6.66137c0.15403,-0.3325 1.88019,-0.02309 1.82866,0.02461c-0.72033,0.66701 2.43076,4.49502 2.79467,6.70956c0.67055,-0.04266 1.55134,-0.33145 1.94223,0.1456c0.36503,-0.4585 3.18156,-3.96179 3.33554,-6.98897c0.02206,-0.43381 1.55073,-0.15926 1.26317,0.10515c-0.46094,1.88475 -3.71143,7.17652 -3.96538,7.36918c0.29554,1.65015 0.17589,1.76326 2.06361,3.04638c0.84955,-2.29312 2.65969,-4.23963 4.31761,-6.17698c1.87205,-2.17526 3.12843,-4.25914 5.19062,-6.52359c2.71469,-2.87652 6.18166,-5.50123 9.35699,-7.06804c2.20894,-1.08996 5.90998,-2.02436 6.47735,-2.08551c1.05108,-0.1173 2.00158,-0.09648 3.24745,0.11631c1.83831,0.31395 3.63328,0.48928 5.56333,1.5307c1.8148,1.33658 1.18744,3.01172 0.84907,4.58081c-2.7951,3.5432 -5.6579,7.78668 -6.55951,12.12796c-0.30314,1.6075 -0.84818,4.37752 -2.13456,6.11751c-2.06806,2.67646 -4.59906,2.57748 -6.9771,2.94029c1.44899,0.47691 3.02057,2.03412 4.43049,3.59892c2.19942,2.46125 3.27112,4.98529 2.70314,7.73315c-0.12091,0.57636 -2.218,4.94797 -3.24373,6.31967c-3.89317,5.22318 -9.19341,8.76545 -13.46529,8.19055c-1.53837,-0.20702 -5.7817,-3.91991 -6.54461,-5.01549c-1.8939,-2.7197 -3.44951,-6.00018 -3.51345,-8.86426c-0.23543,-0.27039 -0.52334,-0.29036 -0.3964,-0.6521c-0.2359,0.82834 -0.98501,3.52591 -2.09402,5.23127c-1.60332,2.46548 -3.07098,-1.22004 -3.66505,-4.20884c-0.20366,-1.02456 -0.05419,-1.20193 -0.29171,-1.81457c-1.12316,0.48986 -0.53178,1.91026 -0.97255,3.05767c-0.37369,0.99919 -2.04724,4.0511 -2.50939,4.74686c-1.47732,2.224 -4.79451,5.58946 -7.20024,6.397c-2.2328,0.74951 -4.1252,0.64436 -5.91969,-0.41363c-2.31458,-1.36459 -5.5765,-4.53383 -7.58325,-7.11075c-2.54043,-3.18855 -4.76082,-7.9792 -2.64754,-11.35368c1.34885,-2.10549 3.88783,-5.24322 6.3689,-6.01425c-1.75139,-0.24656 -5.62633,-1.57342 -7.06739,-5.25885c-0.46253,-1.16847 -0.63411,-2.98523 -0.75176,-4.28509c-0.19142,-2.14602 -1.04323,-4.61162 -1.75033,-6.7247c-0.56843,-1.93187 -1.5731,-4.4051 -2.62453,-6.51868c-1.1019,-2.21798 -2.00529,-5.8855 -0.08766,-7.69148c0.66987,-0.63096 2.74403,-1.36687 3.17751,-1.41935c1.51526,-0.18599 3.57967,0.66937 5.11216,1.18254c1.00401,0.33899 5.40935,2.14823 6.62766,3.14442c8.03165,6.56737 13.74274,14.74791 17.45309,22.28473z" fill-opacity="null" stroke-opacity="null" stroke-width="1.5" stroke="#000" fill="#fff"/>
 </g>
</svg>